<svg width="327" height="580" viewBox="0 0 327 580" fill="none" xmlns="http://www.w3.org/2000/svg">
<g filter="url(#filter0_d)">
<path fill-rule="evenodd" clip-rule="evenodd" d="M58.2433 0C49.959 0 43.2433 6.71573 43.2433 15V465C43.2433 473.284 49.959 480 58.2433 480H268.243C276.528 480 283.243 473.284 283.243 465V15C283.243 6.71573 276.528 0 268.243 0H58.2433ZM57.1352 3.89188C51.6123 3.89188 47.1352 8.36904 47.1352 13.8919V466.108C47.1352 471.631 51.6123 476.108 57.1351 476.108H269.351C274.874 476.108 279.351 471.631 279.351 466.108V13.8919C279.351 8.36903 274.874 3.89188 269.351 3.89188H57.1352Z" fill="white"/>
<rect x="40" y="58.3784" width="2.59459" height="16.2162" rx="1.2973" fill="white"/>
<path fill-rule="evenodd" clip-rule="evenodd" d="M40 92.1081C40 91.3916 40.5808 90.8108 41.2973 90.8108C42.0138 90.8108 42.5946 91.3916 42.5946 92.1081V119.351C42.5946 120.068 42.0138 120.649 41.2973 120.649C40.5808 120.649 40 120.068 40 119.351V92.1081Z" fill="white"/>
<rect x="40" y="129.73" width="2.59459" height="29.8378" rx="1.2973" fill="white"/>
<path fill-rule="evenodd" clip-rule="evenodd" d="M286.486 102.487C286.486 101.77 285.906 101.189 285.189 101.189C284.473 101.189 283.892 101.77 283.892 102.487V149.189C283.892 149.906 284.473 150.487 285.189 150.487C285.906 150.487 286.486 149.906 286.486 149.189V102.487Z" fill="white"/>
<path fill-rule="evenodd" clip-rule="evenodd" d="M192.432 24.6486C195.298 24.6486 197.622 22.3254 197.622 19.4595C197.622 16.5935 195.298 14.2703 192.432 14.2703C189.567 14.2703 187.243 16.5935 187.243 19.4595C187.243 22.3254 189.567 24.6486 192.432 24.6486Z" fill="white"/>
<path fill-rule="evenodd" clip-rule="evenodd" d="M192.432 22.7028C194.224 22.7028 195.676 21.2507 195.676 19.4596C195.676 17.6684 194.224 16.2163 192.432 16.2163C190.641 16.2163 189.189 17.6684 189.189 19.4596C189.189 21.2507 190.641 22.7028 192.432 22.7028Z" fill="white"/>
<path fill-rule="evenodd" clip-rule="evenodd" d="M148.973 19.4596C148.973 17.6684 150.425 16.2163 152.216 16.2163H174.27C176.061 16.2163 177.514 17.6684 177.514 19.4596C177.514 21.2507 176.061 22.7028 174.27 22.7028H152.216C150.425 22.7028 148.973 21.2507 148.973 19.4596Z" fill="white"/>
<path fill-rule="evenodd" clip-rule="evenodd" d="M150.27 19.4596C150.27 18.3849 151.141 17.5137 152.216 17.5137H174.27C175.345 17.5137 176.216 18.3849 176.216 19.4596C176.216 20.5343 175.345 21.4056 174.27 21.4056H152.216C151.141 21.4056 150.27 20.5343 150.27 19.4596Z" fill="white"/>
<path d="M96.1919 9.72974C101.168 9.72974 105.388 13.389 106.091 18.3155L106.882 23.8466C107.585 28.7731 111.805 32.4324 116.781 32.4324H209.705C214.682 32.4324 218.901 28.7731 219.605 23.8467L220.395 18.3155C221.099 13.389 225.318 9.72974 230.295 9.72974H263.514C269.036 9.72974 273.514 14.2069 273.514 19.7297V460.27C273.514 465.793 269.036 470.27 263.514 470.27H62.973C57.4501 470.27 52.973 465.793 52.973 460.27V19.7297C52.973 14.2069 57.4501 9.72974 62.973 9.72974H96.1919Z" fill="white"/>
<mask id="mask0" mask-type="alpha" maskUnits="userSpaceOnUse" x="52" y="9" width="222" height="462">
<path d="M96.1919 9.72974C101.168 9.72974 105.388 13.389 106.091 18.3155L106.882 23.8466C107.585 28.7731 111.805 32.4324 116.781 32.4324H209.705C214.682 32.4324 218.901 28.7731 219.605 23.8467L220.395 18.3155C221.099 13.389 225.318 9.72974 230.295 9.72974H263.514C269.036 9.72974 273.514 14.2069 273.514 19.7297V460.27C273.514 465.793 269.036 470.27 263.514 470.27H62.973C57.4501 470.27 52.973 465.793 52.973 460.27V19.7297C52.973 14.2069 57.4501 9.72974 62.973 9.72974H96.1919Z" fill="white"/>
</mask>
<g mask="url(#mask0)">
<g style="mix-blend-mode:overlay" opacity="0.061924">
<path d="M263.514 9.72974C269.036 9.72974 273.514 14.2069 273.514 19.7297V426.235C273.514 436.88 259.092 440.155 254.494 430.554L59.83 24.0488C56.6514 17.4111 61.4896 9.72974 68.8492 9.72974H263.514Z" fill="white"/>
</g>
</g>
</g>
<rect x="63" y="91" width="208" height="280"/>
<rect x="95" y="386" width="135" height="36" rx="5" fill="#4F3C74"/>
<defs>
<filter id="filter0_d" x="0" y="0" width="326.486" height="580" filterUnits="userSpaceOnUse" color-interpolation-filters="sRGB">
<feFlood flood-opacity="0" result="BackgroundImageFix"/>
<feColorMatrix in="SourceAlpha" type="matrix" values="0 0 0 0 0 0 0 0 0 0 0 0 0 0 0 0 0 0 127 0"/>
<feOffset dy="60"/>
<feGaussianBlur stdDeviation="20"/>
<feColorMatrix type="matrix" values="0 0 0 0 0 0 0 0 0 0 0 0 0 0 0 0 0 0 0.19982 0"/>
<feBlend mode="normal" in2="BackgroundImageFix" result="effect1_dropShadow"/>
<feBlend mode="normal" in="SourceGraphic" in2="effect1_dropShadow" result="shape"/>
</filter>
</defs>
</svg>

