<svg width="1019" height="445" viewBox="0 0 1019 445" fill="none" xmlns="http://www.w3.org/2000/svg">
<g clip-path="url(#clip0)">
<rect width="1019" height="445" rx="11" fill="white"/>
<path d="M0 11C0 4.92488 4.92487 0 11 0H1008C1014.08 0 1019 4.92487 1019 11V434C1019 440.075 1014.08 445 1008 445H11C4.92485 445 0 440.075 0 434V11Z" fill="#F4AC3B"/>
<path d="M62.89 104.1C62.89 100.392 63.718 97.08 65.374 94.164C67.066 91.212 69.352 88.926 72.232 87.306C75.148 85.65 78.406 84.822 82.006 84.822C86.218 84.822 89.908 85.902 93.076 88.062C96.244 90.222 98.458 93.21 99.718 97.026H91.024C90.16 95.226 88.936 93.876 87.352 92.976C85.804 92.076 84.004 91.626 81.952 91.626C79.756 91.626 77.794 92.148 76.066 93.192C74.374 94.2 73.042 95.64 72.07 97.512C71.134 99.384 70.666 101.58 70.666 104.1C70.666 106.584 71.134 108.78 72.07 110.688C73.042 112.56 74.374 114.018 76.066 115.062C77.794 116.07 79.756 116.574 81.952 116.574C84.004 116.574 85.804 116.124 87.352 115.224C88.936 114.288 90.16 112.92 91.024 111.12H99.718C98.458 114.972 96.244 117.978 93.076 120.138C89.944 122.262 86.254 123.324 82.006 123.324C78.406 123.324 75.148 122.514 72.232 120.894C69.352 119.238 67.066 116.952 65.374 114.036C63.718 111.12 62.89 107.808 62.89 104.1ZM119.459 123.486C116.579 123.486 113.987 122.856 111.683 121.596C109.379 120.3 107.561 118.482 106.229 116.142C104.933 113.802 104.285 111.102 104.285 108.042C104.285 104.982 104.951 102.282 106.283 99.942C107.651 97.602 109.505 95.802 111.845 94.542C114.185 93.246 116.795 92.598 119.675 92.598C122.555 92.598 125.165 93.246 127.505 94.542C129.845 95.802 131.681 97.602 133.013 99.942C134.381 102.282 135.065 104.982 135.065 108.042C135.065 111.102 134.363 113.802 132.959 116.142C131.591 118.482 129.719 120.3 127.343 121.596C125.003 122.856 122.375 123.486 119.459 123.486ZM119.459 116.898C120.827 116.898 122.105 116.574 123.293 115.926C124.517 115.242 125.489 114.234 126.209 112.902C126.929 111.57 127.289 109.95 127.289 108.042C127.289 105.198 126.533 103.02 125.021 101.508C123.545 99.96 121.727 99.186 119.567 99.186C117.407 99.186 115.589 99.96 114.113 101.508C112.673 103.02 111.953 105.198 111.953 108.042C111.953 110.886 112.655 113.082 114.059 114.63C115.499 116.142 117.299 116.898 119.459 116.898ZM177.763 92.652C181.435 92.652 184.387 93.786 186.619 96.054C188.887 98.286 190.021 101.418 190.021 105.45V123H182.461V106.476C182.461 104.136 181.867 102.354 180.679 101.13C179.491 99.87 177.871 99.24 175.819 99.24C173.767 99.24 172.129 99.87 170.905 101.13C169.717 102.354 169.123 104.136 169.123 106.476V123H161.563V106.476C161.563 104.136 160.969 102.354 159.781 101.13C158.593 99.87 156.973 99.24 154.921 99.24C152.833 99.24 151.177 99.87 149.953 101.13C148.765 102.354 148.171 104.136 148.171 106.476V123H140.611V93.084H148.171V96.702C149.143 95.442 150.385 94.452 151.897 93.732C153.445 93.012 155.137 92.652 156.973 92.652C159.313 92.652 161.401 93.156 163.237 94.164C165.073 95.136 166.495 96.54 167.503 98.376C168.475 96.648 169.879 95.262 171.715 94.218C173.587 93.174 175.603 92.652 177.763 92.652ZM201.029 89.52C199.697 89.52 198.581 89.106 197.681 88.278C196.817 87.414 196.385 86.352 196.385 85.092C196.385 83.832 196.817 82.788 197.681 81.96C198.581 81.096 199.697 80.664 201.029 80.664C202.361 80.664 203.459 81.096 204.323 81.96C205.223 82.788 205.673 83.832 205.673 85.092C205.673 86.352 205.223 87.414 204.323 88.278C203.459 89.106 202.361 89.52 201.029 89.52ZM204.755 93.084V123H197.195V93.084H204.755ZM228.802 92.652C232.366 92.652 235.246 93.786 237.442 96.054C239.638 98.286 240.736 101.418 240.736 105.45V123H233.176V106.476C233.176 104.1 232.582 102.282 231.394 101.022C230.206 99.726 228.586 99.078 226.534 99.078C224.446 99.078 222.79 99.726 221.566 101.022C220.378 102.282 219.784 104.1 219.784 106.476V123H212.224V93.084H219.784V96.81C220.792 95.514 222.07 94.506 223.618 93.786C225.202 93.03 226.93 92.652 228.802 92.652ZM259.643 92.598C261.875 92.598 263.837 93.048 265.529 93.948C267.221 94.812 268.553 95.946 269.525 97.35V93.084H277.139V123.216C277.139 125.988 276.581 128.454 275.465 130.614C274.349 132.81 272.675 134.538 270.443 135.798C268.211 137.094 265.511 137.742 262.343 137.742C258.095 137.742 254.603 136.752 251.867 134.772C249.167 132.792 247.637 130.092 247.277 126.672H254.783C255.179 128.04 256.025 129.12 257.321 129.912C258.653 130.74 260.255 131.154 262.127 131.154C264.323 131.154 266.105 130.488 267.473 129.156C268.841 127.86 269.525 125.88 269.525 123.216V118.572C268.553 119.976 267.203 121.146 265.475 122.082C263.783 123.018 261.839 123.486 259.643 123.486C257.123 123.486 254.819 122.838 252.731 121.542C250.643 120.246 248.987 118.428 247.763 116.088C246.575 113.712 245.981 110.994 245.981 107.934C245.981 104.91 246.575 102.228 247.763 99.888C248.987 97.548 250.625 95.748 252.677 94.488C254.765 93.228 257.087 92.598 259.643 92.598ZM269.525 108.042C269.525 106.206 269.165 104.64 268.445 103.344C267.725 102.012 266.753 101.004 265.529 100.32C264.305 99.6 262.991 99.24 261.587 99.24C260.183 99.24 258.887 99.582 257.699 100.266C256.511 100.95 255.539 101.958 254.783 103.29C254.063 104.586 253.703 106.134 253.703 107.934C253.703 109.734 254.063 111.318 254.783 112.686C255.539 114.018 256.511 115.044 257.699 115.764C258.923 116.484 260.219 116.844 261.587 116.844C262.991 116.844 264.305 116.502 265.529 115.818C266.753 115.098 267.725 114.09 268.445 112.794C269.165 111.462 269.525 109.878 269.525 108.042ZM310.404 123.378C307.776 123.378 305.4 122.928 303.276 122.028C301.188 121.128 299.532 119.832 298.308 118.14C297.084 116.448 296.454 114.45 296.418 112.146H304.518C304.626 113.694 305.166 114.918 306.138 115.818C307.146 116.718 308.514 117.168 310.242 117.168C312.006 117.168 313.392 116.754 314.4 115.926C315.408 115.062 315.912 113.946 315.912 112.578C315.912 111.462 315.57 110.544 314.886 109.824C314.202 109.104 313.338 108.546 312.294 108.15C311.286 107.718 309.882 107.25 308.082 106.746C305.634 106.026 303.636 105.324 302.088 104.64C300.576 103.92 299.262 102.858 298.146 101.454C297.066 100.014 296.526 98.106 296.526 95.73C296.526 93.498 297.084 91.554 298.2 89.898C299.316 88.242 300.882 86.982 302.898 86.118C304.914 85.218 307.218 84.768 309.81 84.768C313.698 84.768 316.848 85.722 319.26 87.63C321.708 89.502 323.058 92.13 323.31 95.514H314.994C314.922 94.218 314.364 93.156 313.32 92.328C312.312 91.464 310.962 91.032 309.27 91.032C307.794 91.032 306.606 91.41 305.706 92.166C304.842 92.922 304.41 94.02 304.41 95.46C304.41 96.468 304.734 97.314 305.382 97.998C306.066 98.646 306.894 99.186 307.866 99.618C308.874 100.014 310.278 100.482 312.078 101.022C314.526 101.742 316.524 102.462 318.072 103.182C319.62 103.902 320.952 104.982 322.068 106.422C323.184 107.862 323.742 109.752 323.742 112.092C323.742 114.108 323.22 115.98 322.176 117.708C321.132 119.436 319.602 120.822 317.586 121.866C315.57 122.874 313.176 123.378 310.404 123.378ZM343.58 123.486C340.7 123.486 338.108 122.856 335.804 121.596C333.5 120.3 331.682 118.482 330.35 116.142C329.054 113.802 328.406 111.102 328.406 108.042C328.406 104.982 329.072 102.282 330.404 99.942C331.772 97.602 333.626 95.802 335.966 94.542C338.306 93.246 340.916 92.598 343.796 92.598C346.676 92.598 349.286 93.246 351.626 94.542C353.966 95.802 355.802 97.602 357.134 99.942C358.502 102.282 359.186 104.982 359.186 108.042C359.186 111.102 358.484 113.802 357.08 116.142C355.712 118.482 353.84 120.3 351.464 121.596C349.124 122.856 346.496 123.486 343.58 123.486ZM343.58 116.898C344.948 116.898 346.226 116.574 347.414 115.926C348.638 115.242 349.61 114.234 350.33 112.902C351.05 111.57 351.41 109.95 351.41 108.042C351.41 105.198 350.654 103.02 349.142 101.508C347.666 99.96 345.848 99.186 343.688 99.186C341.528 99.186 339.71 99.96 338.234 101.508C336.794 103.02 336.074 105.198 336.074 108.042C336.074 110.886 336.776 113.082 338.18 114.63C339.62 116.142 341.42 116.898 343.58 116.898ZM378.016 123.486C375.136 123.486 372.544 122.856 370.24 121.596C367.936 120.3 366.118 118.482 364.786 116.142C363.49 113.802 362.842 111.102 362.842 108.042C362.842 104.982 363.508 102.282 364.84 99.942C366.208 97.602 368.062 95.802 370.402 94.542C372.742 93.246 375.352 92.598 378.232 92.598C381.112 92.598 383.722 93.246 386.062 94.542C388.402 95.802 390.238 97.602 391.57 99.942C392.938 102.282 393.622 104.982 393.622 108.042C393.622 111.102 392.92 113.802 391.516 116.142C390.148 118.482 388.276 120.3 385.9 121.596C383.56 122.856 380.932 123.486 378.016 123.486ZM378.016 116.898C379.384 116.898 380.662 116.574 381.85 115.926C383.074 115.242 384.046 114.234 384.766 112.902C385.486 111.57 385.846 109.95 385.846 108.042C385.846 105.198 385.09 103.02 383.578 101.508C382.102 99.96 380.284 99.186 378.124 99.186C375.964 99.186 374.146 99.96 372.67 101.508C371.23 103.02 370.51 105.198 370.51 108.042C370.51 110.886 371.212 113.082 372.616 114.63C374.056 116.142 375.856 116.898 378.016 116.898ZM415.745 92.652C419.309 92.652 422.189 93.786 424.385 96.054C426.581 98.286 427.679 101.418 427.679 105.45V123H420.119V106.476C420.119 104.1 419.525 102.282 418.337 101.022C417.149 99.726 415.529 99.078 413.477 99.078C411.389 99.078 409.733 99.726 408.509 101.022C407.321 102.282 406.727 104.1 406.727 106.476V123H399.167V93.084H406.727V96.81C407.735 95.514 409.013 94.506 410.561 93.786C412.145 93.03 413.873 92.652 415.745 92.652ZM444.643 84.66L443.779 110.742H437.407L436.489 84.66H444.643ZM440.755 123.378C439.387 123.378 438.253 122.964 437.353 122.136C436.489 121.272 436.057 120.21 436.057 118.95C436.057 117.69 436.489 116.646 437.353 115.818C438.253 114.954 439.387 114.522 440.755 114.522C442.087 114.522 443.185 114.954 444.049 115.818C444.913 116.646 445.345 117.69 445.345 118.95C445.345 120.21 444.913 121.272 444.049 122.136C443.185 122.964 442.087 123.378 440.755 123.378Z" fill="white"/>
<path d="M71.896 188.32V200.344C71.896 201.832 71.44 203.008 70.528 203.872C69.632 204.736 68.448 205.168 66.976 205.168C65.504 205.168 64.312 204.736 63.4 203.872C62.504 203.008 62.056 201.832 62.056 200.344H64.816C64.832 201.08 65.016 201.664 65.368 202.096C65.736 202.528 66.272 202.744 66.976 202.744C67.68 202.744 68.216 202.528 68.584 202.096C68.952 201.648 69.136 201.064 69.136 200.344V188.32H71.896ZM82.0829 205.216C80.8349 205.216 79.7069 204.936 78.6989 204.376C77.6909 203.8 76.8989 203 76.3229 201.976C75.7469 200.936 75.4589 199.736 75.4589 198.376C75.4589 197.032 75.7549 195.84 76.3469 194.8C76.9389 193.76 77.7469 192.96 78.7709 192.4C79.7949 191.84 80.9389 191.56 82.2029 191.56C83.4669 191.56 84.6109 191.84 85.6349 192.4C86.6589 192.96 87.4669 193.76 88.0589 194.8C88.6509 195.84 88.9469 197.032 88.9469 198.376C88.9469 199.72 88.6429 200.912 88.0349 201.952C87.4269 202.992 86.5949 203.8 85.5389 204.376C84.4989 204.936 83.3469 205.216 82.0829 205.216ZM82.0829 202.84C82.7869 202.84 83.4429 202.672 84.0509 202.336C84.6749 202 85.1789 201.496 85.5629 200.824C85.9469 200.152 86.1389 199.336 86.1389 198.376C86.1389 197.416 85.9549 196.608 85.5869 195.952C85.2189 195.28 84.7309 194.776 84.1229 194.44C83.5149 194.104 82.8589 193.936 82.1549 193.936C81.4509 193.936 80.7949 194.104 80.1869 194.44C79.5949 194.776 79.1229 195.28 78.7709 195.952C78.4189 196.608 78.2429 197.416 78.2429 198.376C78.2429 199.8 78.6029 200.904 79.3229 201.688C80.0589 202.456 80.9789 202.84 82.0829 202.84ZM93.0436 190.024C92.5476 190.024 92.1316 189.856 91.7956 189.52C91.4596 189.184 91.2916 188.768 91.2916 188.272C91.2916 187.776 91.4596 187.36 91.7956 187.024C92.1316 186.688 92.5476 186.52 93.0436 186.52C93.5236 186.52 93.9316 186.688 94.2676 187.024C94.6036 187.36 94.7716 187.776 94.7716 188.272C94.7716 188.768 94.6036 189.184 94.2676 189.52C93.9316 189.856 93.5236 190.024 93.0436 190.024ZM94.3876 191.776V205H91.6516V191.776H94.3876ZM104.652 191.56C105.692 191.56 106.62 191.776 107.436 192.208C108.268 192.64 108.916 193.28 109.38 194.128C109.844 194.976 110.076 196 110.076 197.2V205H107.364V197.608C107.364 196.424 107.068 195.52 106.476 194.896C105.884 194.256 105.076 193.936 104.052 193.936C103.028 193.936 102.212 194.256 101.604 194.896C101.012 195.52 100.716 196.424 100.716 197.608V205H97.9797V191.776H100.716V193.288C101.164 192.744 101.732 192.32 102.42 192.016C103.124 191.712 103.868 191.56 104.652 191.56ZM122.512 188.32V198.952C122.512 200.216 122.84 201.168 123.496 201.808C124.168 202.448 125.096 202.768 126.28 202.768C127.48 202.768 128.408 202.448 129.064 201.808C129.736 201.168 130.072 200.216 130.072 198.952V188.32H132.808V198.904C132.808 200.264 132.512 201.416 131.92 202.36C131.328 203.304 130.536 204.008 129.544 204.472C128.552 204.936 127.456 205.168 126.256 205.168C125.056 205.168 123.96 204.936 122.968 204.472C121.992 204.008 121.216 203.304 120.64 202.36C120.064 201.416 119.776 200.264 119.776 198.904V188.32H122.512ZM141.17 205.216C140.13 205.216 139.194 205.032 138.362 204.664C137.546 204.28 136.898 203.768 136.418 203.128C135.938 202.472 135.682 201.744 135.65 200.944H138.482C138.53 201.504 138.794 201.976 139.274 202.36C139.77 202.728 140.386 202.912 141.122 202.912C141.89 202.912 142.482 202.768 142.898 202.48C143.33 202.176 143.546 201.792 143.546 201.328C143.546 200.832 143.306 200.464 142.826 200.224C142.362 199.984 141.618 199.72 140.594 199.432C139.602 199.16 138.794 198.896 138.17 198.64C137.546 198.384 137.002 197.992 136.538 197.464C136.09 196.936 135.866 196.24 135.866 195.376C135.866 194.672 136.074 194.032 136.49 193.456C136.906 192.864 137.498 192.4 138.266 192.064C139.05 191.728 139.946 191.56 140.954 191.56C142.458 191.56 143.666 191.944 144.578 192.712C145.506 193.464 146.002 194.496 146.066 195.808H143.33C143.282 195.216 143.042 194.744 142.61 194.392C142.178 194.04 141.594 193.864 140.858 193.864C140.138 193.864 139.586 194 139.202 194.272C138.818 194.544 138.626 194.904 138.626 195.352C138.626 195.704 138.754 196 139.01 196.24C139.266 196.48 139.578 196.672 139.946 196.816C140.314 196.944 140.858 197.112 141.578 197.32C142.538 197.576 143.322 197.84 143.93 198.112C144.554 198.368 145.09 198.752 145.538 199.264C145.986 199.776 146.218 200.456 146.234 201.304C146.234 202.056 146.026 202.728 145.61 203.32C145.194 203.912 144.602 204.376 143.834 204.712C143.082 205.048 142.194 205.216 141.17 205.216ZM166.201 188.32V190.552H161.761V205H159.025V190.552H154.561V188.32H166.201ZM174.708 205.216C173.46 205.216 172.332 204.936 171.324 204.376C170.316 203.8 169.524 203 168.948 201.976C168.372 200.936 168.084 199.736 168.084 198.376C168.084 197.032 168.38 195.84 168.972 194.8C169.564 193.76 170.372 192.96 171.396 192.4C172.42 191.84 173.564 191.56 174.828 191.56C176.092 191.56 177.236 191.84 178.26 192.4C179.284 192.96 180.092 193.76 180.684 194.8C181.276 195.84 181.572 197.032 181.572 198.376C181.572 199.72 181.268 200.912 180.66 201.952C180.052 202.992 179.22 203.8 178.164 204.376C177.124 204.936 175.972 205.216 174.708 205.216ZM174.708 202.84C175.412 202.84 176.068 202.672 176.676 202.336C177.3 202 177.804 201.496 178.188 200.824C178.572 200.152 178.764 199.336 178.764 198.376C178.764 197.416 178.58 196.608 178.212 195.952C177.844 195.28 177.356 194.776 176.748 194.44C176.14 194.104 175.484 193.936 174.78 193.936C174.076 193.936 173.42 194.104 172.812 194.44C172.22 194.776 171.748 195.28 171.396 195.952C171.044 196.608 170.868 197.416 170.868 198.376C170.868 199.8 171.228 200.904 171.948 201.688C172.684 202.456 173.604 202.84 174.708 202.84ZM183.365 198.328C183.365 197 183.637 195.824 184.181 194.8C184.741 193.776 185.493 192.984 186.437 192.424C187.397 191.848 188.461 191.56 189.629 191.56C190.493 191.56 191.341 191.752 192.173 192.136C193.021 192.504 193.693 193 194.189 193.624V187.24H196.949V205H194.189V203.008C193.741 203.648 193.117 204.176 192.317 204.592C191.533 205.008 190.629 205.216 189.605 205.216C188.453 205.216 187.397 204.928 186.437 204.352C185.493 203.76 184.741 202.944 184.181 201.904C183.637 200.848 183.365 199.656 183.365 198.328ZM194.189 198.376C194.189 197.464 193.997 196.672 193.613 196C193.245 195.328 192.757 194.816 192.149 194.464C191.541 194.112 190.885 193.936 190.181 193.936C189.477 193.936 188.821 194.112 188.213 194.464C187.605 194.8 187.109 195.304 186.725 195.976C186.357 196.632 186.173 197.416 186.173 198.328C186.173 199.24 186.357 200.04 186.725 200.728C187.109 201.416 187.605 201.944 188.213 202.312C188.837 202.664 189.493 202.84 190.181 202.84C190.885 202.84 191.541 202.664 192.149 202.312C192.757 201.96 193.245 201.448 193.613 200.776C193.997 200.088 194.189 199.288 194.189 198.376ZM199.63 198.328C199.63 197 199.902 195.824 200.446 194.8C201.006 193.776 201.758 192.984 202.702 192.424C203.662 191.848 204.718 191.56 205.87 191.56C206.91 191.56 207.814 191.768 208.582 192.184C209.366 192.584 209.99 193.088 210.454 193.696V191.776H213.214V205H210.454V203.032C209.99 203.656 209.358 204.176 208.558 204.592C207.758 205.008 206.846 205.216 205.822 205.216C204.686 205.216 203.646 204.928 202.702 204.352C201.758 203.76 201.006 202.944 200.446 201.904C199.902 200.848 199.63 199.656 199.63 198.328ZM210.454 198.376C210.454 197.464 210.262 196.672 209.878 196C209.51 195.328 209.022 194.816 208.414 194.464C207.806 194.112 207.15 193.936 206.446 193.936C205.742 193.936 205.086 194.112 204.478 194.464C203.87 194.8 203.374 195.304 202.99 195.976C202.622 196.632 202.438 197.416 202.438 198.328C202.438 199.24 202.622 200.04 202.99 200.728C203.374 201.416 203.87 201.944 204.478 202.312C205.102 202.664 205.758 202.84 206.446 202.84C207.15 202.84 207.806 202.664 208.414 202.312C209.022 201.96 209.51 201.448 209.878 200.776C210.262 200.088 210.454 199.288 210.454 198.376ZM228.712 191.776L220.6 211.216H217.768L220.456 204.784L215.248 191.776H218.296L222.016 201.856L225.88 191.776H228.712ZM247.067 201.592H240.083L238.883 205H236.027L242.003 188.296H245.171L251.147 205H248.267L247.067 201.592ZM246.299 199.36L243.587 191.608L240.851 199.36H246.299ZM260.417 191.56C261.457 191.56 262.385 191.776 263.201 192.208C264.033 192.64 264.681 193.28 265.145 194.128C265.609 194.976 265.841 196 265.841 197.2V205H263.129V197.608C263.129 196.424 262.833 195.52 262.241 194.896C261.649 194.256 260.841 193.936 259.817 193.936C258.793 193.936 257.977 194.256 257.369 194.896C256.777 195.52 256.481 196.424 256.481 197.608V205H253.745V191.776H256.481V193.288C256.929 192.744 257.497 192.32 258.185 192.016C258.889 191.712 259.633 191.56 260.417 191.56ZM268.419 198.328C268.419 197 268.691 195.824 269.235 194.8C269.795 193.776 270.547 192.984 271.491 192.424C272.451 191.848 273.515 191.56 274.683 191.56C275.547 191.56 276.395 191.752 277.227 192.136C278.075 192.504 278.747 193 279.243 193.624V187.24H282.003V205H279.243V203.008C278.795 203.648 278.171 204.176 277.371 204.592C276.587 205.008 275.683 205.216 274.659 205.216C273.507 205.216 272.451 204.928 271.491 204.352C270.547 203.76 269.795 202.944 269.235 201.904C268.691 200.848 268.419 199.656 268.419 198.328ZM279.243 198.376C279.243 197.464 279.051 196.672 278.667 196C278.299 195.328 277.811 194.816 277.203 194.464C276.595 194.112 275.939 193.936 275.235 193.936C274.531 193.936 273.875 194.112 273.267 194.464C272.659 194.8 272.163 195.304 271.779 195.976C271.411 196.632 271.227 197.416 271.227 198.328C271.227 199.24 271.411 200.04 271.779 200.728C272.163 201.416 272.659 201.944 273.267 202.312C273.891 202.664 274.547 202.84 275.235 202.84C275.939 202.84 276.595 202.664 277.203 202.312C277.811 201.96 278.299 201.448 278.667 200.776C279.051 200.088 279.243 199.288 279.243 198.376ZM297.327 205.168C296.207 205.168 295.199 204.976 294.303 204.592C293.407 204.192 292.703 203.632 292.191 202.912C291.679 202.192 291.423 201.352 291.423 200.392H294.351C294.415 201.112 294.695 201.704 295.191 202.168C295.703 202.632 296.415 202.864 297.327 202.864C298.271 202.864 299.007 202.64 299.535 202.192C300.063 201.728 300.327 201.136 300.327 200.416C300.327 199.856 300.159 199.4 299.823 199.048C299.503 198.696 299.095 198.424 298.599 198.232C298.119 198.04 297.447 197.832 296.583 197.608C295.495 197.32 294.607 197.032 293.919 196.744C293.247 196.44 292.671 195.976 292.191 195.352C291.711 194.728 291.471 193.896 291.471 192.856C291.471 191.896 291.711 191.056 292.191 190.336C292.671 189.616 293.343 189.064 294.207 188.68C295.071 188.296 296.071 188.104 297.207 188.104C298.823 188.104 300.143 188.512 301.167 189.328C302.207 190.128 302.783 191.232 302.895 192.64H299.871C299.823 192.032 299.535 191.512 299.007 191.08C298.479 190.648 297.783 190.432 296.919 190.432C296.135 190.432 295.495 190.632 294.999 191.032C294.503 191.432 294.255 192.008 294.255 192.76C294.255 193.272 294.407 193.696 294.711 194.032C295.031 194.352 295.431 194.608 295.911 194.8C296.391 194.992 297.047 195.2 297.879 195.424C298.983 195.728 299.879 196.032 300.567 196.336C301.271 196.64 301.863 197.112 302.343 197.752C302.839 198.376 303.087 199.216 303.087 200.272C303.087 201.12 302.855 201.92 302.391 202.672C301.943 203.424 301.279 204.032 300.399 204.496C299.535 204.944 298.511 205.168 297.327 205.168ZM309.508 194.008V201.328C309.508 201.824 309.62 202.184 309.844 202.408C310.084 202.616 310.484 202.72 311.044 202.72H312.724V205H310.564C309.332 205 308.388 204.712 307.732 204.136C307.076 203.56 306.748 202.624 306.748 201.328V194.008H305.188V191.776H306.748V188.488H309.508V191.776H312.724V194.008H309.508ZM314.333 198.328C314.333 197 314.605 195.824 315.149 194.8C315.709 193.776 316.461 192.984 317.405 192.424C318.365 191.848 319.421 191.56 320.573 191.56C321.613 191.56 322.517 191.768 323.285 192.184C324.069 192.584 324.693 193.088 325.157 193.696V191.776H327.917V205H325.157V203.032C324.693 203.656 324.061 204.176 323.261 204.592C322.461 205.008 321.549 205.216 320.525 205.216C319.389 205.216 318.349 204.928 317.405 204.352C316.461 203.76 315.709 202.944 315.149 201.904C314.605 200.848 314.333 199.656 314.333 198.328ZM325.157 198.376C325.157 197.464 324.965 196.672 324.581 196C324.213 195.328 323.725 194.816 323.117 194.464C322.509 194.112 321.853 193.936 321.149 193.936C320.445 193.936 319.789 194.112 319.181 194.464C318.573 194.8 318.077 195.304 317.693 195.976C317.325 196.632 317.141 197.416 317.141 198.328C317.141 199.24 317.325 200.04 317.693 200.728C318.077 201.416 318.573 201.944 319.181 202.312C319.805 202.664 320.461 202.84 321.149 202.84C321.853 202.84 322.509 202.664 323.117 202.312C323.725 201.96 324.213 201.448 324.581 200.776C324.965 200.088 325.157 199.288 325.157 198.376ZM334.247 193.696C334.647 193.024 335.175 192.504 335.831 192.136C336.503 191.752 337.295 191.56 338.207 191.56V194.392H337.511C336.439 194.392 335.623 194.664 335.063 195.208C334.519 195.752 334.247 196.696 334.247 198.04V205H331.511V191.776H334.247V193.696ZM343.914 194.008V201.328C343.914 201.824 344.026 202.184 344.25 202.408C344.49 202.616 344.89 202.72 345.45 202.72H347.13V205H344.97C343.738 205 342.794 204.712 342.138 204.136C341.482 203.56 341.154 202.624 341.154 201.328V194.008H339.594V191.776H341.154V188.488H343.914V191.776H347.13V194.008H343.914ZM65.536 226.528V231.424H71.296V233.656H65.536V238.768H72.016V241H62.8V224.296H72.016V226.528H65.536ZM81.0499 234.304L85.3219 241H82.2259L79.3699 236.512L76.6819 241H73.8259L78.0979 234.496L73.8259 227.776H76.9219L79.7779 232.264L82.4659 227.776H85.3219L81.0499 234.304ZM90.0985 229.72C90.5625 229.112 91.1945 228.6 91.9945 228.184C92.7945 227.768 93.6985 227.56 94.7065 227.56C95.8585 227.56 96.9065 227.848 97.8505 228.424C98.8105 228.984 99.5625 229.776 100.107 230.8C100.651 231.824 100.923 233 100.923 234.328C100.923 235.656 100.651 236.848 100.107 237.904C99.5625 238.944 98.8105 239.76 97.8505 240.352C96.9065 240.928 95.8585 241.216 94.7065 241.216C93.6985 241.216 92.8025 241.016 92.0185 240.616C91.2345 240.2 90.5945 239.688 90.0985 239.08V247.288H87.3625V227.776H90.0985V229.72ZM98.1385 234.328C98.1385 233.416 97.9465 232.632 97.5625 231.976C97.1945 231.304 96.6985 230.8 96.0745 230.464C95.4665 230.112 94.8105 229.936 94.1065 229.936C93.4185 229.936 92.7625 230.112 92.1385 230.464C91.5305 230.816 91.0345 231.328 90.6505 232C90.2825 232.672 90.0985 233.464 90.0985 234.376C90.0985 235.288 90.2825 236.088 90.6505 236.776C91.0345 237.448 91.5305 237.96 92.1385 238.312C92.7625 238.664 93.4185 238.84 94.1065 238.84C94.8105 238.84 95.4665 238.664 96.0745 238.312C96.6985 237.944 97.1945 237.416 97.5625 236.728C97.9465 236.04 98.1385 235.24 98.1385 234.328ZM115.748 234.064C115.748 234.56 115.716 235.008 115.652 235.408H105.548C105.628 236.464 106.02 237.312 106.724 237.952C107.428 238.592 108.292 238.912 109.316 238.912C110.788 238.912 111.828 238.296 112.436 237.064H115.388C114.988 238.28 114.26 239.28 113.204 240.064C112.164 240.832 110.868 241.216 109.316 241.216C108.052 241.216 106.916 240.936 105.908 240.376C104.916 239.8 104.132 239 103.556 237.976C102.996 236.936 102.716 235.736 102.716 234.376C102.716 233.016 102.988 231.824 103.532 230.8C104.092 229.76 104.868 228.96 105.86 228.4C106.868 227.84 108.02 227.56 109.316 227.56C110.564 227.56 111.676 227.832 112.652 228.376C113.628 228.92 114.388 229.688 114.932 230.68C115.476 231.656 115.748 232.784 115.748 234.064ZM112.892 233.2C112.876 232.192 112.516 231.384 111.812 230.776C111.108 230.168 110.236 229.864 109.196 229.864C108.252 229.864 107.444 230.168 106.772 230.776C106.1 231.368 105.7 232.176 105.572 233.2H112.892ZM121.177 229.696C121.577 229.024 122.105 228.504 122.761 228.136C123.433 227.752 124.225 227.56 125.137 227.56V230.392H124.441C123.369 230.392 122.553 230.664 121.993 231.208C121.449 231.752 121.177 232.696 121.177 234.04V241H118.441V227.776H121.177V229.696ZM129.044 226.024C128.548 226.024 128.132 225.856 127.796 225.52C127.46 225.184 127.292 224.768 127.292 224.272C127.292 223.776 127.46 223.36 127.796 223.024C128.132 222.688 128.548 222.52 129.044 222.52C129.524 222.52 129.932 222.688 130.268 223.024C130.604 223.36 130.772 223.776 130.772 224.272C130.772 224.768 130.604 225.184 130.268 225.52C129.932 225.856 129.524 226.024 129.044 226.024ZM130.388 227.776V241H127.652V227.776H130.388ZM146.1 234.064C146.1 234.56 146.068 235.008 146.004 235.408H135.9C135.98 236.464 136.372 237.312 137.076 237.952C137.78 238.592 138.644 238.912 139.668 238.912C141.14 238.912 142.18 238.296 142.788 237.064H145.74C145.34 238.28 144.612 239.28 143.556 240.064C142.516 240.832 141.22 241.216 139.668 241.216C138.404 241.216 137.268 240.936 136.26 240.376C135.268 239.8 134.484 239 133.908 237.976C133.348 236.936 133.068 235.736 133.068 234.376C133.068 233.016 133.34 231.824 133.884 230.8C134.444 229.76 135.22 228.96 136.212 228.4C137.22 227.84 138.372 227.56 139.668 227.56C140.916 227.56 142.028 227.832 143.004 228.376C143.98 228.92 144.74 229.688 145.284 230.68C145.828 231.656 146.1 232.784 146.1 234.064ZM143.244 233.2C143.228 232.192 142.868 231.384 142.164 230.776C141.46 230.168 140.588 229.864 139.548 229.864C138.604 229.864 137.796 230.168 137.124 230.776C136.452 231.368 136.052 232.176 135.924 233.2H143.244ZM155.464 227.56C156.504 227.56 157.432 227.776 158.248 228.208C159.08 228.64 159.728 229.28 160.192 230.128C160.656 230.976 160.888 232 160.888 233.2V241H158.176V233.608C158.176 232.424 157.88 231.52 157.288 230.896C156.696 230.256 155.888 229.936 154.864 229.936C153.84 229.936 153.024 230.256 152.416 230.896C151.824 231.52 151.528 232.424 151.528 233.608V241H148.792V227.776H151.528V229.288C151.976 228.744 152.544 228.32 153.232 228.016C153.936 227.712 154.68 227.56 155.464 227.56ZM163.466 234.376C163.466 233.016 163.738 231.824 164.282 230.8C164.842 229.76 165.61 228.96 166.586 228.4C167.562 227.84 168.682 227.56 169.946 227.56C171.546 227.56 172.866 227.944 173.906 228.712C174.962 229.464 175.674 230.544 176.042 231.952H173.09C172.85 231.296 172.466 230.784 171.938 230.416C171.41 230.048 170.746 229.864 169.946 229.864C168.826 229.864 167.93 230.264 167.258 231.064C166.602 231.848 166.274 232.952 166.274 234.376C166.274 235.8 166.602 236.912 167.258 237.712C167.93 238.512 168.826 238.912 169.946 238.912C171.53 238.912 172.578 238.216 173.09 236.824H176.042C175.658 238.168 174.938 239.24 173.882 240.04C172.826 240.824 171.514 241.216 169.946 241.216C168.682 241.216 167.562 240.936 166.586 240.376C165.61 239.8 164.842 239 164.282 237.976C163.738 236.936 163.466 235.736 163.466 234.376ZM180.161 226.024C179.665 226.024 179.249 225.856 178.913 225.52C178.577 225.184 178.409 224.768 178.409 224.272C178.409 223.776 178.577 223.36 178.913 223.024C179.249 222.688 179.665 222.52 180.161 222.52C180.641 222.52 181.049 222.688 181.385 223.024C181.721 223.36 181.889 223.776 181.889 224.272C181.889 224.768 181.721 225.184 181.385 225.52C181.049 225.856 180.641 226.024 180.161 226.024ZM181.505 227.776V241H178.769V227.776H181.505ZM191.769 227.56C192.809 227.56 193.737 227.776 194.553 228.208C195.385 228.64 196.033 229.28 196.497 230.128C196.961 230.976 197.193 232 197.193 233.2V241H194.481V233.608C194.481 232.424 194.185 231.52 193.593 230.896C193.001 230.256 192.193 229.936 191.169 229.936C190.145 229.936 189.329 230.256 188.721 230.896C188.129 231.52 187.833 232.424 187.833 233.608V241H185.097V227.776H187.833V229.288C188.281 228.744 188.849 228.32 189.537 228.016C190.241 227.712 190.985 227.56 191.769 227.56ZM206.011 227.56C207.035 227.56 207.939 227.768 208.723 228.184C209.523 228.584 210.147 229.088 210.595 229.696V227.776H213.355V241.216C213.355 242.432 213.099 243.512 212.587 244.456C212.075 245.416 211.331 246.168 210.355 246.712C209.395 247.256 208.243 247.528 206.899 247.528C205.107 247.528 203.619 247.104 202.435 246.256C201.251 245.424 200.579 244.288 200.419 242.848H203.131C203.339 243.536 203.779 244.088 204.451 244.504C205.139 244.936 205.955 245.152 206.899 245.152C208.003 245.152 208.891 244.816 209.563 244.144C210.251 243.472 210.595 242.496 210.595 241.216V239.008C210.131 239.632 209.499 240.16 208.699 240.592C207.915 241.008 207.019 241.216 206.011 241.216C204.859 241.216 203.803 240.928 202.843 240.352C201.899 239.76 201.147 238.944 200.587 237.904C200.043 236.848 199.771 235.656 199.771 234.328C199.771 233 200.043 231.824 200.587 230.8C201.147 229.776 201.899 228.984 202.843 228.424C203.803 227.848 204.859 227.56 206.011 227.56ZM210.595 234.376C210.595 233.464 210.403 232.672 210.019 232C209.651 231.328 209.163 230.816 208.555 230.464C207.947 230.112 207.291 229.936 206.587 229.936C205.883 229.936 205.227 230.112 204.619 230.464C204.011 230.8 203.515 231.304 203.131 231.976C202.763 232.632 202.579 233.416 202.579 234.328C202.579 235.24 202.763 236.04 203.131 236.728C203.515 237.416 204.011 237.944 204.619 238.312C205.243 238.664 205.899 238.84 206.587 238.84C207.291 238.84 207.947 238.664 208.555 238.312C209.163 237.96 209.651 237.448 210.019 236.776C210.403 236.088 210.595 235.288 210.595 234.376ZM233.239 237.592H226.255L225.055 241H222.199L228.175 224.296H231.343L237.319 241H234.439L233.239 237.592ZM232.471 235.36L229.759 227.608L227.023 235.36H232.471ZM258.224 229.12C257.792 228.288 257.192 227.664 256.424 227.248C255.656 226.816 254.768 226.6 253.76 226.6C252.656 226.6 251.672 226.848 250.808 227.344C249.944 227.84 249.264 228.544 248.768 229.456C248.288 230.368 248.048 231.424 248.048 232.624C248.048 233.824 248.288 234.888 248.768 235.816C249.264 236.728 249.944 237.432 250.808 237.928C251.672 238.424 252.656 238.672 253.76 238.672C255.248 238.672 256.456 238.256 257.384 237.424C258.312 236.592 258.88 235.464 259.088 234.04H252.824V231.856H262.016V233.992C261.84 235.288 261.376 236.48 260.624 237.568C259.888 238.656 258.92 239.528 257.72 240.184C256.536 240.824 255.216 241.144 253.76 241.144C252.192 241.144 250.76 240.784 249.464 240.064C248.168 239.328 247.136 238.312 246.368 237.016C245.616 235.72 245.24 234.256 245.24 232.624C245.24 230.992 245.616 229.528 246.368 228.232C247.136 226.936 248.168 225.928 249.464 225.208C250.776 224.472 252.208 224.104 253.76 224.104C255.536 224.104 257.112 224.544 258.488 225.424C259.88 226.288 260.888 227.52 261.512 229.12H258.224ZM270.45 241.216C269.202 241.216 268.074 240.936 267.066 240.376C266.058 239.8 265.266 239 264.69 237.976C264.114 236.936 263.826 235.736 263.826 234.376C263.826 233.032 264.122 231.84 264.714 230.8C265.306 229.76 266.114 228.96 267.138 228.4C268.162 227.84 269.306 227.56 270.57 227.56C271.834 227.56 272.978 227.84 274.002 228.4C275.026 228.96 275.834 229.76 276.426 230.8C277.018 231.84 277.314 233.032 277.314 234.376C277.314 235.72 277.01 236.912 276.402 237.952C275.794 238.992 274.962 239.8 273.906 240.376C272.866 240.936 271.714 241.216 270.45 241.216ZM270.45 238.84C271.154 238.84 271.81 238.672 272.418 238.336C273.042 238 273.546 237.496 273.93 236.824C274.314 236.152 274.506 235.336 274.506 234.376C274.506 233.416 274.322 232.608 273.954 231.952C273.586 231.28 273.098 230.776 272.49 230.44C271.882 230.104 271.226 229.936 270.522 229.936C269.818 229.936 269.162 230.104 268.554 230.44C267.962 230.776 267.49 231.28 267.138 231.952C266.786 232.608 266.61 233.416 266.61 234.376C266.61 235.8 266.97 236.904 267.69 237.688C268.426 238.456 269.346 238.84 270.45 238.84ZM285.755 241.216C284.507 241.216 283.379 240.936 282.371 240.376C281.363 239.8 280.571 239 279.995 237.976C279.419 236.936 279.131 235.736 279.131 234.376C279.131 233.032 279.427 231.84 280.019 230.8C280.611 229.76 281.419 228.96 282.443 228.4C283.467 227.84 284.611 227.56 285.875 227.56C287.139 227.56 288.283 227.84 289.307 228.4C290.331 228.96 291.139 229.76 291.731 230.8C292.323 231.84 292.619 233.032 292.619 234.376C292.619 235.72 292.315 236.912 291.707 237.952C291.099 238.992 290.267 239.8 289.211 240.376C288.171 240.936 287.019 241.216 285.755 241.216ZM285.755 238.84C286.459 238.84 287.115 238.672 287.723 238.336C288.347 238 288.851 237.496 289.235 236.824C289.619 236.152 289.811 235.336 289.811 234.376C289.811 233.416 289.627 232.608 289.259 231.952C288.891 231.28 288.403 230.776 287.795 230.44C287.187 230.104 286.531 229.936 285.827 229.936C285.123 229.936 284.467 230.104 283.859 230.44C283.267 230.776 282.795 231.28 282.443 231.952C282.091 232.608 281.915 233.416 281.915 234.376C281.915 235.8 282.275 236.904 282.995 237.688C283.731 238.456 284.651 238.84 285.755 238.84ZM294.411 234.328C294.411 233 294.683 231.824 295.227 230.8C295.787 229.776 296.539 228.984 297.483 228.424C298.443 227.848 299.507 227.56 300.675 227.56C301.539 227.56 302.387 227.752 303.219 228.136C304.067 228.504 304.739 229 305.235 229.624V223.24H307.995V241H305.235V239.008C304.787 239.648 304.163 240.176 303.363 240.592C302.579 241.008 301.675 241.216 300.651 241.216C299.499 241.216 298.443 240.928 297.483 240.352C296.539 239.76 295.787 238.944 295.227 237.904C294.683 236.848 294.411 235.656 294.411 234.328ZM305.235 234.376C305.235 233.464 305.043 232.672 304.659 232C304.291 231.328 303.803 230.816 303.195 230.464C302.587 230.112 301.931 229.936 301.227 229.936C300.523 229.936 299.867 230.112 299.259 230.464C298.651 230.8 298.155 231.304 297.771 231.976C297.403 232.632 297.219 233.416 297.219 234.328C297.219 235.24 297.403 236.04 297.771 236.728C298.155 237.416 298.651 237.944 299.259 238.312C299.883 238.664 300.539 238.84 301.227 238.84C301.931 238.84 302.587 238.664 303.195 238.312C303.803 237.96 304.291 237.448 304.659 236.776C305.043 236.088 305.235 235.288 305.235 234.376ZM328.599 224.32V226.552H324.159V241H321.423V226.552H316.959V224.32H328.599ZM332.762 226.024C332.266 226.024 331.85 225.856 331.514 225.52C331.178 225.184 331.01 224.768 331.01 224.272C331.01 223.776 331.178 223.36 331.514 223.024C331.85 222.688 332.266 222.52 332.762 222.52C333.242 222.52 333.65 222.688 333.986 223.024C334.322 223.36 334.49 223.776 334.49 224.272C334.49 224.768 334.322 225.184 333.986 225.52C333.65 225.856 333.242 226.024 332.762 226.024ZM334.106 227.776V241H331.37V227.776H334.106ZM353.706 227.56C354.746 227.56 355.674 227.776 356.49 228.208C357.322 228.64 357.97 229.28 358.434 230.128C358.914 230.976 359.154 232 359.154 233.2V241H356.442V233.608C356.442 232.424 356.146 231.52 355.554 230.896C354.962 230.256 354.154 229.936 353.13 229.936C352.106 229.936 351.29 230.256 350.682 230.896C350.09 231.52 349.794 232.424 349.794 233.608V241H347.082V233.608C347.082 232.424 346.786 231.52 346.194 230.896C345.602 230.256 344.794 229.936 343.77 229.936C342.746 229.936 341.93 230.256 341.322 230.896C340.73 231.52 340.434 232.424 340.434 233.608V241H337.698V227.776H340.434V229.288C340.882 228.744 341.45 228.32 342.138 228.016C342.826 227.712 343.562 227.56 344.346 227.56C345.402 227.56 346.346 227.784 347.178 228.232C348.01 228.68 348.65 229.328 349.098 230.176C349.498 229.376 350.122 228.744 350.97 228.28C351.818 227.8 352.73 227.56 353.706 227.56ZM374.756 234.064C374.756 234.56 374.724 235.008 374.66 235.408H364.556C364.636 236.464 365.028 237.312 365.732 237.952C366.436 238.592 367.3 238.912 368.324 238.912C369.796 238.912 370.836 238.296 371.444 237.064H374.396C373.996 238.28 373.268 239.28 372.212 240.064C371.172 240.832 369.876 241.216 368.324 241.216C367.06 241.216 365.924 240.936 364.916 240.376C363.924 239.8 363.14 239 362.564 237.976C362.004 236.936 361.724 235.736 361.724 234.376C361.724 233.016 361.996 231.824 362.54 230.8C363.1 229.76 363.876 228.96 364.868 228.4C365.876 227.84 367.028 227.56 368.324 227.56C369.572 227.56 370.684 227.832 371.66 228.376C372.636 228.92 373.396 229.688 373.94 230.68C374.484 231.656 374.756 232.784 374.756 234.064ZM371.9 233.2C371.884 232.192 371.524 231.384 370.82 230.776C370.116 230.168 369.244 229.864 368.204 229.864C367.26 229.864 366.452 230.168 365.78 230.776C365.108 231.368 364.708 232.176 364.58 233.2H371.9Z" fill="white"/>
<path d="M216.969 331.896H66.0312C63.2641 331.896 61 329.742 61 327.11V288.815C61 286.182 63.2641 284.028 66.0312 284.028H216.969C219.736 284.028 222 286.182 222 288.815V327.11C222 329.742 219.736 331.896 216.969 331.896Z" fill="black"/>
<path fill-rule="evenodd" clip-rule="evenodd" d="M73.3266 307.483V294.918C73.3266 294.2 73.9555 293.602 74.5844 293.602C75.2133 293.602 75.4649 293.721 75.8422 293.961L100.118 306.646C100.621 306.885 100.873 307.244 100.873 307.603C100.873 307.962 100.621 308.321 100.118 308.561L75.8422 321.246C75.5906 321.365 75.2133 321.605 74.5844 321.605C73.9555 321.605 73.3266 321.006 73.3266 320.288V307.483Z" fill="url(#paint0_linear)"/>
<path fill-rule="evenodd" clip-rule="evenodd" d="M89.0492 307.603L74.3328 293.602C74.4586 293.602 74.4586 293.602 74.5844 293.602C75.2133 293.602 75.4649 293.721 75.8422 293.961L93.7031 303.295L89.0492 307.603Z" fill="url(#paint1_linear)"/>
<path fill-rule="evenodd" clip-rule="evenodd" d="M93.5773 311.792L89.0492 307.484L93.7031 303.056L100.118 306.406C100.621 306.646 100.873 307.005 100.873 307.364C100.873 307.723 100.621 308.082 100.118 308.321L93.5773 311.792Z" fill="url(#paint2_linear)"/>
<path fill-rule="evenodd" clip-rule="evenodd" d="M74.4586 321.365L89.0492 307.483L93.5773 311.792L75.8422 321.006C75.4648 321.246 75.2133 321.365 74.4586 321.365C74.5844 321.365 74.5844 321.365 74.4586 321.365Z" fill="url(#paint3_linear)"/>
<path fill-rule="evenodd" clip-rule="evenodd" d="M150.43 324.596C149.802 324.118 149.298 323.28 149.047 322.801L151.059 321.964C151.185 322.203 151.437 322.562 151.688 322.921C152.191 323.4 152.946 323.878 153.701 323.878C154.455 323.878 155.336 323.519 155.839 322.921C156.216 322.323 156.468 321.724 156.468 320.887V320.168C154.959 321.964 151.814 321.724 150.053 319.809C148.166 317.895 148.166 314.664 150.053 312.749C151.94 310.954 154.707 310.714 156.342 312.39V311.552H158.48V320.527C158.48 322.801 157.6 324.118 156.468 324.955C155.713 325.554 154.581 325.793 153.575 325.793C152.443 325.673 151.311 325.314 150.43 324.596ZM203.133 325.075L205.271 320.288L201.498 312.031H203.636L206.277 317.895L208.919 312.031H211.057L205.271 325.075H203.133ZM192.945 320.527C192.316 319.929 192.064 319.091 192.064 318.254C192.064 317.536 192.316 316.818 192.819 316.339C193.699 315.501 194.957 315.142 196.341 315.142C197.221 315.142 197.976 315.262 198.605 315.621C198.605 314.185 197.347 313.587 196.341 313.587C195.46 313.587 194.58 314.065 194.202 314.903L192.316 314.185C192.693 313.347 193.699 311.792 196.215 311.792C197.473 311.792 198.73 312.151 199.485 312.988C200.24 313.826 200.491 314.783 200.491 316.1V321.126H198.353V320.288C198.102 320.647 197.598 320.887 197.221 321.126C196.718 321.365 196.089 321.485 195.46 321.485C194.705 321.365 193.573 321.126 192.945 320.527ZM125.903 316.219C125.903 313.826 127.79 311.193 131.186 311.193C134.456 311.193 136.469 313.826 136.469 316.219C136.469 318.613 134.582 321.246 131.186 321.246C127.79 321.246 125.903 318.613 125.903 316.219ZM137.223 316.219C137.223 313.826 139.11 311.193 142.506 311.193C145.777 311.193 147.789 313.826 147.789 316.219C147.789 318.613 145.902 321.246 142.506 321.246C139.236 321.246 137.223 318.613 137.223 316.219ZM111.69 318.852C108.545 315.86 108.671 310.954 111.816 307.842C113.451 306.287 115.463 305.569 117.602 305.569C119.614 305.569 121.627 306.287 123.136 307.723L121.627 309.278C119.362 307.124 115.715 307.244 113.577 309.398C111.312 311.672 111.312 315.142 113.577 317.416C115.841 319.69 119.614 319.809 121.878 317.536C122.633 316.818 122.884 315.86 123.01 314.903H117.727V312.749H125.148C125.274 313.228 125.274 313.826 125.274 314.424C125.274 316.219 124.52 318.014 123.262 319.211C121.878 320.527 119.866 321.246 117.853 321.246C115.589 321.126 113.325 320.408 111.69 318.852ZM164.895 319.69C163.009 317.775 163.009 314.544 164.895 312.51C166.782 310.595 169.927 310.595 171.687 312.51C172.316 313.108 172.694 313.946 173.071 314.783L166.153 317.536C166.53 318.373 167.411 319.091 168.669 319.091C169.801 319.091 170.555 318.732 171.31 317.655L173.197 318.852C172.945 319.091 172.694 319.331 172.568 319.57C170.43 321.605 166.782 321.605 164.895 319.69ZM177.977 321.126V307.842H182.505C185.146 307.842 187.284 309.637 187.284 311.792C187.284 313.946 185.398 315.741 183.008 315.741H180.241V321.006H177.977V321.126ZM188.542 321.126V307.842H190.68V321.126H188.542ZM160.116 320.887V306.047H162.38V320.887H160.116ZM198.479 317.177C197.976 316.818 197.221 316.698 196.466 316.698C194.957 316.698 194.077 317.416 194.077 318.254C194.077 319.091 194.957 319.57 195.837 319.57C197.095 319.57 198.479 318.613 198.479 317.177ZM134.079 316.219C134.079 314.783 133.073 313.228 131.186 313.228C129.299 313.228 128.293 314.783 128.293 316.219C128.293 317.655 129.299 319.211 131.186 319.211C132.947 319.211 134.079 317.655 134.079 316.219ZM145.399 316.219C145.399 314.783 144.393 313.228 142.506 313.228C140.62 313.228 139.613 314.783 139.613 316.219C139.613 317.655 140.62 319.211 142.506 319.211C144.393 319.211 145.399 317.655 145.399 316.219ZM156.594 317.057C156.594 316.937 156.594 316.818 156.72 316.698C156.72 316.578 156.72 316.339 156.72 316.219C156.72 316.1 156.72 315.86 156.72 315.741V315.621C156.72 315.501 156.594 315.262 156.594 315.142C156.216 313.946 155.084 313.108 153.952 313.108C152.443 313.108 151.185 314.544 151.185 316.1C151.185 317.775 152.443 319.091 154.078 319.091C155.084 319.211 156.091 318.373 156.594 317.057ZM165.776 315.98L170.43 314.065C169.927 313.228 169.172 312.988 168.543 312.988C166.656 313.108 165.524 315.023 165.776 315.98ZM185.02 311.911C185.02 310.714 184.014 309.877 182.63 309.877H180.115V314.065H182.756C184.014 314.065 185.02 313.108 185.02 311.911Z" fill="white"/>
<path fill-rule="evenodd" clip-rule="evenodd" d="M204.768 322.682H204.642V322.562H204.768H204.642V322.682H204.768Z" fill="white"/>
<path fill-rule="evenodd" clip-rule="evenodd" d="M205.02 322.682C205.02 322.562 205.02 322.562 205.02 322.682C204.894 322.562 204.894 322.562 205.02 322.682C204.894 322.682 204.894 322.682 205.02 322.682ZM205.02 322.562C205.02 322.682 205.02 322.682 205.02 322.562C205.02 322.682 204.894 322.682 205.02 322.562C205.02 322.562 204.894 322.562 205.02 322.562Z" fill="white"/>
<path fill-rule="evenodd" clip-rule="evenodd" d="M205.145 322.562H205.02H205.145V322.682V322.562Z" fill="white"/>
<path d="M109.929 296.115C109.929 293.96 111.564 292.644 113.577 292.644C114.96 292.644 115.841 293.242 116.47 294.08L115.463 294.678C115.086 294.2 114.457 293.841 113.577 293.841C112.193 293.841 111.187 294.798 111.187 296.234C111.187 297.67 112.193 298.628 113.577 298.628C114.331 298.628 114.96 298.269 115.212 298.029V296.952H113.199V295.875H116.595V298.388C115.966 299.106 114.96 299.585 113.702 299.585C111.564 299.585 109.929 298.149 109.929 296.115Z" fill="white"/>
<path d="M118.105 299.466V292.764H122.884V293.841H119.237V295.516H122.759V296.593H119.237V298.508H122.884V299.585L118.105 299.466Z" fill="white"/>
<path d="M126.406 299.465V293.841H124.268V292.764H129.802V293.841H127.664V299.465H126.406Z" fill="white"/>
<path d="M134.079 299.465V292.764H135.337V299.465H134.079Z" fill="white"/>
<path d="M138.733 299.465V293.841H136.595V292.764H142.129V293.841H139.991V299.465H138.733Z" fill="white"/>
<path d="M146.154 296.115C146.154 294.08 147.663 292.644 149.802 292.644C151.94 292.644 153.449 294.08 153.449 296.115C153.449 298.149 151.94 299.585 149.802 299.585C147.663 299.585 146.154 298.029 146.154 296.115ZM152.066 296.115C152.066 294.678 151.185 293.721 149.676 293.721C148.292 293.721 147.286 294.798 147.286 296.115C147.286 297.551 148.166 298.508 149.676 298.508C151.185 298.508 152.066 297.431 152.066 296.115Z" fill="white"/>
<path d="M159.738 299.465L156.091 294.679V299.465H154.833V292.764H156.091L159.738 297.431V292.764H160.996V299.465H159.738Z" fill="white"/>
<path d="M433.875 331.896H280.125C277.306 331.896 275 329.742 275 327.11V288.815C275 286.182 277.306 284.028 280.125 284.028H433.875C436.694 284.028 439 286.182 439 288.815V327.11C439 329.742 436.694 331.896 433.875 331.896Z" fill="black"/>
<path d="M309.594 307.723C309.594 304.013 312.925 302.218 313.053 302.098C311.131 299.585 308.312 299.226 307.287 299.106C304.853 298.867 302.419 300.423 301.266 300.423C299.984 300.423 298.062 299.106 296.012 299.106C293.322 299.106 290.887 300.542 289.478 302.816C286.659 307.364 288.709 314.065 291.4 317.775C292.809 319.57 294.347 321.605 296.397 321.485C298.447 321.365 299.216 320.288 301.65 320.288C304.084 320.288 304.725 321.485 306.903 321.485C309.081 321.485 310.491 319.69 311.772 317.895C313.309 315.86 313.95 313.826 313.95 313.706C313.822 313.587 309.594 312.151 309.594 307.723Z" fill="white"/>
<path d="M305.622 296.713C306.647 295.397 307.416 293.721 307.287 291.926C305.75 292.046 303.7 292.884 302.675 294.2C301.65 295.277 300.753 297.072 301.009 298.748C302.675 298.867 304.469 297.91 305.622 296.713Z" fill="white"/>
<path d="M338.806 321.246H335.987L334.45 316.698H329.069L327.659 321.246H324.969L330.35 305.808H333.681L338.806 321.246ZM333.937 314.783L332.528 310.715C332.4 310.356 332.144 309.279 331.631 307.843C331.503 308.441 331.247 309.518 330.863 310.715L329.453 314.783H333.937Z" fill="white"/>
<path d="M352.516 315.621C352.516 317.536 352.003 318.972 350.85 320.169C349.825 321.126 348.672 321.605 347.134 321.605C345.597 321.605 344.444 321.126 343.803 320.049V325.913H341.113V313.946C341.113 312.749 341.113 311.552 340.984 310.236H343.291L343.419 312.031C344.316 310.715 345.597 309.997 347.391 309.997C348.8 309.997 349.953 310.475 350.85 311.552C352.003 312.51 352.516 313.826 352.516 315.621ZM349.825 315.621C349.825 314.544 349.569 313.587 349.056 312.988C348.544 312.27 347.775 311.911 346.75 311.911C346.109 311.911 345.469 312.151 344.956 312.51C344.444 312.869 344.059 313.467 343.931 314.065C343.803 314.424 343.803 314.664 343.803 314.783V316.698C343.803 317.536 344.059 318.134 344.572 318.733C345.084 319.331 345.853 319.57 346.622 319.57C347.647 319.57 348.416 319.211 348.928 318.493C349.569 317.775 349.825 316.818 349.825 315.621Z" fill="white"/>
<path d="M366.225 315.621C366.225 317.536 365.713 318.972 364.559 320.169C363.534 321.126 362.381 321.605 360.844 321.605C359.306 321.605 358.153 321.126 357.513 320.049V325.913H354.822V313.946C354.822 312.749 354.822 311.552 354.694 310.236H357L357.128 312.031C358.025 310.715 359.306 309.997 361.1 309.997C362.509 309.997 363.663 310.475 364.559 311.552C365.713 312.51 366.225 313.826 366.225 315.621ZM363.534 315.621C363.534 314.544 363.278 313.587 362.766 312.988C362.253 312.27 361.484 311.911 360.459 311.911C359.819 311.911 359.178 312.151 358.666 312.51C358.153 312.869 357.769 313.467 357.641 314.065C357.513 314.424 357.513 314.664 357.513 314.783V316.698C357.513 317.536 357.769 318.134 358.281 318.733C358.794 319.331 359.563 319.57 360.331 319.57C361.356 319.57 362.125 319.211 362.638 318.493C363.278 317.775 363.534 316.818 363.534 315.621Z" fill="white"/>
<path d="M381.6 316.937C381.6 318.254 381.087 319.331 380.191 320.168C379.166 321.126 377.628 321.485 375.706 321.485C373.912 321.485 372.503 321.126 371.478 320.527L372.119 318.493C373.272 319.091 374.553 319.45 375.962 319.45C376.987 319.45 377.756 319.211 378.269 318.852C378.781 318.373 379.037 317.895 379.037 317.177C379.037 316.578 378.781 315.98 378.397 315.621C377.884 315.142 377.116 314.783 376.091 314.424C373.144 313.467 371.734 311.911 371.734 309.996C371.734 308.68 372.247 307.723 373.272 306.885C374.297 306.047 375.578 305.688 377.372 305.688C378.909 305.688 380.062 305.928 381.087 306.406L380.447 308.441C379.55 307.962 378.525 307.723 377.244 307.723C376.347 307.723 375.578 307.962 375.066 308.321C374.681 308.68 374.425 309.159 374.425 309.757C374.425 310.355 374.681 310.834 375.194 311.313C375.578 311.672 376.475 312.031 377.628 312.51C379.037 312.988 380.062 313.706 380.831 314.424C381.216 315.023 381.6 315.86 381.6 316.937Z" fill="white"/>
<path d="M390.312 312.031H387.366V317.416C387.366 318.733 387.878 319.451 388.903 319.451C389.416 319.451 389.8 319.451 390.056 319.331L390.184 321.246C389.672 321.485 389.031 321.485 388.134 321.485C387.109 321.485 386.212 321.246 385.7 320.647C385.059 320.049 384.803 319.092 384.803 317.656V312.031H383.009V310.116H384.803V308.082L387.366 307.364V310.116H390.312V312.031Z" fill="white"/>
<path d="M403.509 315.621C403.509 317.297 402.997 318.733 401.972 319.81C400.819 320.887 399.409 321.485 397.616 321.485C395.822 321.485 394.413 320.887 393.388 319.81C392.363 318.733 391.85 317.416 391.85 315.741C391.85 314.065 392.363 312.629 393.516 311.552C394.541 310.475 396.078 309.877 397.872 309.877C399.666 309.877 401.075 310.475 402.1 311.552C402.997 312.629 403.509 313.946 403.509 315.621ZM400.691 315.741C400.691 314.664 400.434 313.826 399.922 313.108C399.409 312.27 398.513 311.792 397.488 311.792C396.463 311.792 395.566 312.27 395.053 313.108C394.541 313.826 394.284 314.783 394.284 315.741C394.284 316.818 394.541 317.656 395.053 318.374C395.566 319.211 396.463 319.69 397.488 319.69C398.513 319.69 399.281 319.211 399.922 318.374C400.434 317.656 400.691 316.698 400.691 315.741Z" fill="white"/>
<path d="M412.094 312.27C411.838 312.27 411.581 312.151 411.197 312.151C410.3 312.151 409.531 312.51 409.019 313.108C408.634 313.706 408.378 314.424 408.378 315.262V321.126H405.688V313.467C405.688 312.151 405.688 311.073 405.559 309.996H407.866L407.994 312.151H408.122C408.378 311.432 408.891 310.834 409.403 310.355C410.044 309.996 410.684 309.757 411.325 309.757C411.581 309.757 411.838 309.757 411.966 309.757V312.27H412.094Z" fill="white"/>
<path d="M423.881 315.142C423.881 315.621 423.881 315.98 423.753 316.22H415.809C415.809 317.297 416.194 318.134 416.963 318.733C417.603 319.211 418.5 319.57 419.525 319.57C420.678 319.57 421.831 319.451 422.728 319.092L423.113 320.767C421.959 321.246 420.678 321.485 419.141 321.485C417.347 321.485 415.809 321.006 414.784 319.929C413.759 318.972 413.247 317.536 413.247 315.861C413.247 314.185 413.759 312.749 414.656 311.672C415.681 310.475 417.091 309.877 418.884 309.877C420.55 309.877 421.959 310.475 422.728 311.672C423.625 312.629 423.881 313.826 423.881 315.142ZM421.447 314.544C421.447 313.826 421.319 313.228 420.934 312.629C420.422 311.911 419.781 311.552 418.884 311.552C417.988 311.552 417.347 311.911 416.834 312.51C416.45 312.988 416.194 313.706 416.066 314.424H421.447V314.544Z" fill="white"/>
<path d="M333.169 296.354C333.169 297.67 332.784 298.747 331.888 299.465C331.119 300.064 329.966 300.423 328.428 300.423C327.659 300.423 327.019 300.423 326.506 300.303V292.884C327.147 292.764 327.916 292.764 328.813 292.764C330.222 292.764 331.247 293.003 332.016 293.602C332.656 294.2 333.169 295.157 333.169 296.354ZM331.759 296.354C331.759 295.516 331.503 294.798 330.991 294.32C330.478 293.841 329.709 293.602 328.813 293.602C328.428 293.602 328.044 293.602 327.788 293.721V299.346C327.916 299.346 328.3 299.346 328.684 299.346C329.709 299.346 330.478 299.106 330.991 298.628C331.503 298.149 331.759 297.311 331.759 296.354Z" fill="white"/>
<path d="M340.344 297.551C340.344 298.389 340.088 299.107 339.575 299.585C339.063 300.184 338.294 300.423 337.397 300.423C336.5 300.423 335.859 300.184 335.347 299.585C334.834 299.107 334.578 298.389 334.578 297.551C334.578 296.713 334.834 295.995 335.347 295.516C335.859 294.918 336.628 294.679 337.525 294.679C338.422 294.679 339.063 294.918 339.575 295.516C340.088 295.995 340.344 296.713 340.344 297.551ZM339.062 297.551C339.062 297.072 338.934 296.593 338.678 296.234C338.422 295.756 338.038 295.636 337.525 295.636C337.013 295.636 336.628 295.875 336.372 296.234C336.116 296.593 335.988 297.072 335.988 297.551C335.988 298.029 336.116 298.508 336.372 298.867C336.628 299.346 337.013 299.466 337.525 299.466C338.038 299.466 338.422 299.226 338.678 298.748C338.934 298.508 339.062 298.029 339.062 297.551Z" fill="white"/>
<path d="M350.209 294.798L348.416 300.303H347.263L346.494 297.91C346.238 297.311 346.109 296.713 345.981 296.115C345.853 296.713 345.725 297.311 345.469 297.91L344.7 300.303H343.547L341.625 294.798H342.906L343.547 297.431C343.675 298.029 343.803 298.628 343.931 299.226C344.059 298.747 344.188 298.149 344.444 297.431L345.213 294.798H346.238L347.006 297.311C347.263 297.91 347.391 298.508 347.519 299.107C347.647 298.508 347.775 297.91 347.903 297.311L348.672 294.798H350.209Z" fill="white"/>
<path d="M356.872 300.303H355.591V297.192C355.591 296.234 355.206 295.756 354.438 295.756C354.053 295.756 353.797 295.875 353.541 296.115C353.284 296.354 353.156 296.713 353.156 297.072V300.303H351.875V296.354C351.875 295.875 351.875 295.397 351.875 294.798H353.028V295.636C353.156 295.397 353.413 295.157 353.669 294.918C354.053 294.679 354.438 294.559 354.822 294.559C355.334 294.559 355.847 294.679 356.231 295.038C356.744 295.397 356.872 295.995 356.872 296.833V300.303Z" fill="white"/>
<path d="M360.459 300.303H359.178V292.285H360.459V300.303Z" fill="white"/>
<path d="M368.147 297.551C368.147 298.389 367.891 299.107 367.378 299.585C366.866 300.184 366.097 300.423 365.2 300.423C364.303 300.423 363.663 300.184 363.15 299.585C362.638 299.107 362.381 298.389 362.381 297.551C362.381 296.713 362.638 295.995 363.15 295.516C363.663 295.038 364.431 294.679 365.328 294.679C366.225 294.679 366.866 294.918 367.378 295.516C367.891 295.995 368.147 296.713 368.147 297.551ZM366.866 297.551C366.866 297.072 366.738 296.593 366.481 296.234C366.225 295.756 365.841 295.636 365.328 295.636C364.816 295.636 364.431 295.875 364.175 296.234C363.919 296.593 363.791 297.072 363.791 297.551C363.791 298.029 363.919 298.508 364.175 298.867C364.431 299.346 364.816 299.466 365.328 299.466C365.841 299.466 366.225 299.226 366.481 298.748C366.738 298.508 366.866 298.029 366.866 297.551Z" fill="white"/>
<path d="M374.425 300.303H373.272L373.144 299.705C372.759 300.184 372.119 300.423 371.478 300.423C370.966 300.423 370.453 300.303 370.197 299.944C369.941 299.585 369.684 299.226 369.684 298.867C369.684 298.149 369.941 297.67 370.581 297.311C371.222 296.952 371.991 296.833 373.144 296.833V296.713C373.144 295.995 372.759 295.636 371.991 295.636C371.35 295.636 370.966 295.756 370.453 295.995L370.197 295.157C370.709 294.798 371.35 294.679 372.247 294.679C373.784 294.679 374.553 295.397 374.553 296.952V298.987C374.425 299.585 374.425 299.944 374.425 300.303ZM373.144 298.389V297.551C371.734 297.551 370.966 297.91 370.966 298.628C370.966 298.867 371.094 299.107 371.222 299.226C371.35 299.346 371.606 299.466 371.863 299.466C372.119 299.466 372.375 299.346 372.631 299.226C372.888 299.107 373.016 298.867 373.144 298.628C373.144 298.628 373.144 298.508 373.144 298.389Z" fill="white"/>
<path d="M381.856 300.303H380.703V299.465C380.319 300.183 379.678 300.423 378.781 300.423C378.012 300.423 377.5 300.183 376.987 299.705C376.475 299.226 376.347 298.508 376.347 297.67C376.347 296.833 376.603 296.115 377.116 295.516C377.628 295.038 378.269 294.798 378.909 294.798C379.678 294.798 380.191 295.038 380.575 295.516V292.405H381.856V298.867C381.856 299.346 381.856 299.824 381.856 300.303ZM380.575 298.029V297.072C380.575 296.952 380.575 296.833 380.575 296.713C380.447 296.474 380.319 296.234 380.063 295.995C379.806 295.756 379.55 295.756 379.166 295.756C378.653 295.756 378.269 295.995 378.012 296.354C377.756 296.713 377.628 297.192 377.628 297.79C377.628 298.388 377.756 298.747 378.012 299.106C378.269 299.465 378.653 299.705 379.166 299.705C379.55 299.705 379.934 299.585 380.191 299.226C380.447 298.747 380.575 298.388 380.575 298.029Z" fill="white"/>
<path d="M393.003 297.551C393.003 298.389 392.747 299.107 392.234 299.585C391.722 300.184 390.953 300.423 390.056 300.423C389.159 300.423 388.519 300.184 388.006 299.585C387.494 299.107 387.237 298.389 387.237 297.551C387.237 296.713 387.494 295.995 388.006 295.516C388.519 294.918 389.287 294.679 390.184 294.679C391.081 294.679 391.722 294.918 392.234 295.516C392.747 295.995 393.003 296.713 393.003 297.551ZM391.594 297.551C391.594 297.072 391.466 296.593 391.209 296.234C390.953 295.756 390.569 295.636 390.056 295.636C389.544 295.636 389.159 295.875 388.903 296.234C388.647 296.593 388.519 297.072 388.519 297.551C388.519 298.029 388.647 298.508 388.903 298.867C389.159 299.346 389.544 299.466 390.056 299.466C390.569 299.466 390.953 299.226 391.209 298.748C391.466 298.508 391.594 298.029 391.594 297.551Z" fill="white"/>
<path d="M400.05 300.303H398.769V297.192C398.769 296.234 398.384 295.756 397.616 295.756C397.231 295.756 396.975 295.875 396.719 296.115C396.463 296.354 396.334 296.713 396.334 297.072V300.303H395.053V296.354C395.053 295.875 395.053 295.397 395.053 294.798H396.206V295.636C396.334 295.397 396.591 295.157 396.847 294.918C397.231 294.679 397.616 294.559 398 294.559C398.513 294.559 399.025 294.679 399.409 295.038C399.922 295.397 400.05 295.995 400.05 296.833V300.303Z" fill="white"/>
<path d="M408.763 295.756H407.353V298.388C407.353 299.106 407.609 299.346 408.122 299.346C408.378 299.346 408.506 299.346 408.763 299.346V300.303C408.506 300.423 408.122 300.423 407.738 300.423C407.225 300.423 406.841 300.303 406.584 299.944C406.328 299.705 406.2 299.106 406.2 298.508V295.756H405.303V294.798H406.2V293.841L407.481 293.482V294.798H408.891V295.756H408.763Z" fill="white"/>
<path d="M415.681 300.303H414.4V297.192C414.4 296.234 414.016 295.756 413.247 295.756C412.606 295.756 412.222 295.995 411.966 296.593C411.966 296.713 411.966 296.833 411.966 297.072V300.303H410.684V292.285H411.966V295.636C412.35 295.038 412.991 294.679 413.759 294.679C414.272 294.679 414.784 294.798 415.041 295.157C415.425 295.516 415.681 296.234 415.681 296.952V300.303Z" fill="white"/>
<path d="M422.728 297.311C422.728 297.551 422.728 297.67 422.728 297.91H418.884C418.884 298.508 419.141 298.867 419.397 299.106C419.781 299.346 420.166 299.466 420.678 299.466C421.319 299.466 421.831 299.346 422.216 299.226L422.472 300.064C421.959 300.303 421.319 300.423 420.55 300.423C419.653 300.423 418.884 300.184 418.372 299.705C417.859 299.226 417.603 298.508 417.603 297.67C417.603 296.833 417.859 296.115 418.372 295.636C418.884 295.038 419.525 294.798 420.422 294.798C421.319 294.798 421.959 295.038 422.344 295.636C422.6 295.995 422.728 296.593 422.728 297.311ZM421.575 296.952C421.575 296.593 421.447 296.234 421.319 295.995C421.062 295.636 420.806 295.516 420.294 295.516C419.909 295.516 419.525 295.636 419.269 295.995C419.012 296.234 418.884 296.593 418.884 296.952H421.575Z" fill="white"/>
<g filter="url(#filter0_d)">
<path fill-rule="evenodd" clip-rule="evenodd" d="M643.329 32C615.715 32 593.329 54.3858 593.329 82V618C593.329 645.614 615.715 668 643.329 668H863.671C891.285 668 913.671 645.614 913.671 618V82C913.671 54.3858 891.285 32 863.671 32H643.329ZM642.524 37.1568C618.223 37.1568 598.524 56.8563 598.524 81.1568V618.843C598.524 643.144 618.223 662.843 642.524 662.843H864.476C888.777 662.843 908.476 643.144 908.476 618.843V81.1567C908.476 56.8562 888.777 37.1568 864.476 37.1568H642.524Z" fill="white"/>
<path d="M589 111.352C589 110.247 589.895 109.352 591 109.352H592.463V130.838H591C589.895 130.838 589 129.943 589 128.838V111.352Z" fill="white"/>
<path fill-rule="evenodd" clip-rule="evenodd" d="M589 154.324C589 153.22 589.895 152.324 591 152.324H592.463V191.86H591C589.895 191.86 589 190.964 589 189.86V154.324Z" fill="white"/>
<path d="M589 205.892C589 204.788 589.895 203.892 591 203.892H592.463V243.427H591C589.895 243.427 589 242.532 589 241.427V205.892Z" fill="white"/>
<path fill-rule="evenodd" clip-rule="evenodd" d="M918 168.076C918 166.971 917.105 166.076 916 166.076H914.537V231.395H916C917.105 231.395 918 230.499 918 229.395V168.076Z" fill="white"/>
<path fill-rule="evenodd" clip-rule="evenodd" d="M792.461 64.6596C796.286 64.6596 799.387 61.5812 799.387 57.7839C799.387 53.9865 796.286 50.9082 792.461 50.9082C788.635 50.9082 785.534 53.9865 785.534 57.7839C785.534 61.5812 788.635 64.6596 792.461 64.6596Z" fill="white"/>
<path fill-rule="evenodd" clip-rule="evenodd" d="M792.461 62.0812C794.851 62.0812 796.789 60.1572 796.789 57.7839C796.789 55.4105 794.851 53.4866 792.461 53.4866C790.07 53.4866 788.132 55.4105 788.132 57.7839C788.132 60.1572 790.07 62.0812 792.461 62.0812Z" fill="white"/>
<path fill-rule="evenodd" clip-rule="evenodd" d="M734.453 57.7839C734.453 55.4105 736.377 53.4866 738.75 53.4866H768.25C770.623 53.4866 772.547 55.4105 772.547 57.7839C772.547 60.1572 770.623 62.0812 768.25 62.0812H738.75C736.377 62.0812 734.453 60.1572 734.453 57.7839Z" fill="white"/>
<path fill-rule="evenodd" clip-rule="evenodd" d="M736.184 57.7839C736.184 56.3599 737.339 55.2056 738.763 55.2056H768.237C769.661 55.2056 770.816 56.3599 770.816 57.7839C770.816 59.2079 769.661 60.3623 768.237 60.3623H738.763C737.339 60.3623 736.184 59.2079 736.184 57.7839Z" fill="white"/>
<path d="M674.41 44.8918C675.081 44.8918 675.65 45.3848 675.745 46.0488C678.134 62.6496 692.358 74.9729 709.13 74.9729H797.87C814.642 74.9729 828.866 62.6496 831.255 46.0488C831.35 45.3848 831.919 44.8918 832.59 44.8918H860.684C882.776 44.8918 900.684 62.8005 900.684 84.8918V615.108C900.684 637.199 882.776 655.108 860.684 655.108H646.316C624.224 655.108 606.316 637.199 606.316 615.108V84.8918C606.316 62.8004 624.224 44.8918 646.316 44.8918H674.41Z" fill="white"/>
<mask id="mask0" mask-type="alpha" maskUnits="userSpaceOnUse" x="606" y="44" width="295" height="612">
<path d="M674.41 44.8918C675.081 44.8918 675.65 45.3848 675.745 46.0488C678.134 62.6496 692.358 74.9729 709.13 74.9729H797.87C814.642 74.9729 828.866 62.6496 831.255 46.0488C831.35 45.3848 831.919 44.8918 832.59 44.8918H860.684C882.776 44.8918 900.684 62.8005 900.684 84.8918V615.108C900.684 637.199 882.776 655.108 860.684 655.108H646.316C624.224 655.108 606.316 637.199 606.316 615.108V84.8918C606.316 62.8004 624.224 44.8918 646.316 44.8918H674.41Z" fill="white"/>
</mask>
<g mask="url(#mask0)">
<rect x="604.11" y="45" width="304.224" height="613"/>
<g style="mix-blend-mode:overlay" opacity="0.061924">
<path d="M860.684 44.8918C882.776 44.8918 900.684 62.8005 900.684 84.8918V655.108L606.316 44.8918H860.684Z" fill="white"/>
</g>
</g>
</g>
</g>
<defs>
<filter id="filter0_d" x="549" y="32" width="409" height="736" filterUnits="userSpaceOnUse" color-interpolation-filters="sRGB">
<feFlood flood-opacity="0" result="BackgroundImageFix"/>
<feColorMatrix in="SourceAlpha" type="matrix" values="0 0 0 0 0 0 0 0 0 0 0 0 0 0 0 0 0 0 127 0"/>
<feOffset dy="60"/>
<feGaussianBlur stdDeviation="20"/>
<feColorMatrix type="matrix" values="0 0 0 0 0 0 0 0 0 0 0 0 0 0 0 0 0 0 0.19982 0"/>
<feBlend mode="normal" in2="BackgroundImageFix" result="effect1_dropShadow"/>
<feBlend mode="normal" in="SourceGraphic" in2="effect1_dropShadow" result="shape"/>
</filter>
<linearGradient id="paint0_linear" x1="81.4613" y1="291.895" x2="87.8694" y2="319.555" gradientUnits="userSpaceOnUse">
<stop stop-color="#006884"/>
<stop offset="1" stop-color="#8AD1D0"/>
</linearGradient>
<linearGradient id="paint1_linear" x1="72.8746" y1="295.808" x2="91.6199" y2="306.459" gradientUnits="userSpaceOnUse">
<stop stop-color="#24BBB6"/>
<stop offset="1" stop-color="#DBE692"/>
</linearGradient>
<linearGradient id="paint2_linear" x1="94.9539" y1="312.294" x2="94.9539" y2="302.782" gradientUnits="userSpaceOnUse">
<stop stop-color="#FCC072"/>
<stop offset="1" stop-color="#F58A5B"/>
</linearGradient>
<linearGradient id="paint3_linear" x1="76.5902" y1="323.841" x2="90.9822" y2="308.447" gradientUnits="userSpaceOnUse">
<stop stop-color="#712B8F"/>
<stop offset="1" stop-color="#EA1D27"/>
</linearGradient>
<clipPath id="clip0">
<rect width="1019" height="445" rx="11" fill="white"/>
</clipPath>
</defs>
</svg>

